<?xml version="1.0" encoding="UTF-8" standalone="no"?>
<!-- Created with Inkscape (http://www.inkscape.org/) -->

<svg
   xmlns:dc="http://purl.org/dc/elements/1.1/"
   xmlns:cc="http://creativecommons.org/ns#"
   xmlns:rdf="http://www.w3.org/1999/02/22-rdf-syntax-ns#"
   xmlns:svg="http://www.w3.org/2000/svg"
   xmlns="http://www.w3.org/2000/svg"
   xmlns:sodipodi="http://sodipodi.sourceforge.net/DTD/sodipodi-0.dtd"
   xmlns:inkscape="http://www.inkscape.org/namespaces/inkscape"
   width="11in"
   height="8.5in"
   id="svg2"
   version="1.1"
   inkscape:version="0.91+devel r"
   sodipodi:docname="shapes.svg"
   viewBox="0 0 1056 816">
  <defs
     id="defs4" />
  <sodipodi:namedview
     id="base"
     pagecolor="#ffffff"
     bordercolor="#666666"
     borderopacity="1.0"
     inkscape:pageopacity="0.0"
     inkscape:pageshadow="2"
     inkscape:zoom="2.012099"
     inkscape:cx="248.89132"
     inkscape:cy="153.38278"
     inkscape:document-units="mm"
     inkscape:current-layer="layer1"
     showgrid="false"
     inkscape:window-width="956"
     inkscape:window-height="1152"
     inkscape:window-x="0"
     inkscape:window-y="206"
     inkscape:window-maximized="0"
     units="in" />
  <metadata
     id="metadata7">
    <rdf:RDF>
      <cc:Work
         rdf:about="">
        <dc:format>image/svg+xml</dc:format>
        <dc:type
           rdf:resource="http://purl.org/dc/dcmitype/StillImage" />
        <dc:title></dc:title>
      </cc:Work>
    </rdf:RDF>
  </metadata>
  <g
     inkscape:label="Layer 1"
     inkscape:groupmode="layer"
     id="layer1"
     transform="translate(0,-236.36215)">
    <path
       style="fill:none;fill-rule:evenodd;stroke:#000000;stroke-width:1px;stroke-linecap:butt;stroke-linejoin:miter;stroke-opacity:1"
       d="m 6.8732674,932.97317 -4.48461,11.91063 14.3073996,6.77044 -11.5993006,10.08736 9.2829346,16.90293 -7.6509756,6.4433 -1.4347,6.63078 7.2908426,5.82152 -7.0667506,7.70577 -1.606604,6.616 7.2614436,6.1654 0.40707,3.3253 -7.1111176,8.2215 1.717696,6.2088 4.1532006,6.0715 -8.6620646,4.1052 16.9103346,2.6645 13.679808,-0.037 30.835892,1.7823 53.320184,-2.0017 24.39906,-1.8878 10.34682,-7.5971 6.02096,-7.6225 6.15891,-11.2472 3.73819,-11.282 2.39287,-11.74392 -1.31854,-16.91166 -2.34533,-13.0167 -3.3625,-7.21596 -7.36902,-8.94547 -7.54604,-6.88252 -8.22391,-5.03576 -7.8559,-3.27236 -6.78568,-1.62181 -9.51104,-0.1241 -11.48998,0.74504 -11.632328,0.38647 -15.413144,0.0617 -16.728962,-0.74397 -14.838552,-0.58159 -14.696253,-0.22305 -15.196993,-0.43921 z"
       id="path5517"
       inkscape:connector-curvature="0"
       sodipodi:nodetypes="ccccccccccccccccccccccccccccccccccccccccccc" />
    <path
       style="fill:none;fill-rule:evenodd;stroke:#000000;stroke-width:1px;stroke-linecap:butt;stroke-linejoin:miter;stroke-opacity:1"
       d="m 49.334072,794.30671 -6.03273,2.22258 -3.49263,6.19149 0.79378,5.3977 3.65139,6.98527 3.81014,2.38134 8.25532,-1.58756 2.85761,-2.69885 2.54009,-4.12766 0.79378,-4.28641 -3.65139,-5.55646 -4.92143,-2.69886 z"
       id="path5519"
       inkscape:connector-curvature="0"
       sodipodi:nodetypes="ccccccccccccc" />
    <path
       style="fill:none;fill-rule:evenodd;stroke:#000000;stroke-width:1px;stroke-linecap:butt;stroke-linejoin:miter;stroke-opacity:1"
       d="m 461.33602,927.77416 -3.0936,29.38921 -0.68747,-7.39027 -4.29667,-4.6404 -7.2184,-2.74987 -6.7028,-2.0624 -6.35907,1.0312 -5.32787,2.74987 -6.01533,3.95293 -7.21839,7.56214 -4.98415,6.87466 -2.92172,4.6404 -3.26547,7.56214 -3.43734,12.71814 -5.32787,17.35849 -2.0624,11.1714 2.23427,9.1089 4.1248,5.6716 14.78053,10.9995 7.39028,0.6875 9.2808,1.3749 8.2496,3.7811 4.29667,2.2342 7.21841,-1.203 10.14013,1.203 15.63986,1.8906 22.34267,0.1718 16.32734,-2.0624 12.20254,-6.359 4.6404,-8.4215 5.156,-12.0307 3.43733,-14.9524 0.85934,-18.21786 1.5468,-12.89 -2.92174,-11.51507 -5.49973,-7.90587 -8.59334,-6.87467 -13.06187,-5.84347 -11.51507,-0.85933 -7.04653,2.23427 -6.1872,3.78106 -3.78107,5.67161 -1.5468,3.95293 0.68747,-32.48281 z"
       id="path5521"
       inkscape:connector-curvature="0"
       sodipodi:nodetypes="ccccccccccccccccccccccccccccccccccccccccccccc" />
    <path
       style="fill:none;fill-rule:evenodd;stroke:#000000;stroke-width:1px;stroke-linecap:butt;stroke-linejoin:miter;stroke-opacity:1"
       d="m 230.49799,740.84568 -0.93135,25.72435 -27.5682,-10.99809 -22.16634,-12.86218 -1.67645,26.6564 0,38.21373 2.6078,23.67386 7.2646,20.87782 9.31358,12.67568 3.53917,1.86406 7.07833,-24.60591 16.20563,22.55546 15.08801,-20.13208 16.20564,22.36892 10.99002,-21.43695 19.55853,19.01371 13.97036,-21.43696 17.32327,21.80975 8.94104,-8.57476 9.12732,-21.9962 1.49018,-37.6545 -2.79407,-31.50303 -3.3529,-17.8952 -44.7052,20.69133 -1.49018,-27.40204 -9.49941,9.75751 -34.45862,0.23784 z"
       id="path5523"
       inkscape:connector-curvature="0"
       sodipodi:nodetypes="cccccccccccccccccccccccccccc" />
    <path
       style="fill:none;fill-rule:evenodd;stroke:#000000;stroke-width:1px;stroke-linecap:butt;stroke-linejoin:miter;stroke-opacity:1"
       d="m 257.05741,981.41207 58.30128,-2.24236 -0.89694,9.28977 -1.66575,7.36774 -1.28776,4.07984 -3.26102,3.15974 -6.53487,5.1895 -10.76331,4.4847 -9.80231,1.8579 -6.02233,-0.7047 -6.79113,-4.4206 -5.83013,-6.8552 -5.06132,-9.61014 z"
       id="path5525"
       inkscape:connector-curvature="0"
       sodipodi:nodetypes="cccccccccccccc" />
    <path
       style="fill:none;fill-rule:evenodd;stroke:#000000;stroke-width:1px;stroke-linecap:butt;stroke-linejoin:miter;stroke-opacity:1"
       d="m 461.7917,802.4361 -18.45139,25.62694 34.85263,2.05016 z"
       id="path5527"
       inkscape:connector-curvature="0"
       sodipodi:nodetypes="cccc" />
  </g>
</svg>
