  0
SECTION
  2
HEADER
  9
$ACADVER
  1
AC1014
  9
$HANDSEED
  5
FFFF
  9
$MEASUREMENT
 70
     1
  0
ENDSEC
  0
SECTION
  2
TABLES
  0
TABLE
  2
VPORT
  5
8
330
0
100
AcDbSymbolTable
 70
     4
  0
VPORT
  5
2E
330
8
100
AcDbSymbolTableRecord
100
AcDbViewportTableRecord
  2
*ACTIVE
 70
     0
 10
0.0
 20
0.0
 11
1.0
 21
1.0
 12
210.0
 22
148.5
 13
0.0
 23
0.0
 14
10.0
 24
10.0
 15
10.0
 25
10.0
 16
0.0
 26
0.0
 36
1.0
 17
0.0
 27
0.0
 37
0.0
 40
341.0
 41
1.24
 42
50.0
 43
0.0
 44
0.0
 50
0.0
 51
0.0
 71
     0
 72
   100
 73
     1
 74
     3
 75
     0
 76
     0
 77
     0
 78
     0
  0
ENDTAB
  0
TABLE
  2
LTYPE
  5
5
330
0
100
AcDbSymbolTable
 70
     1
  0
LTYPE
  5
14
330
5
100
AcDbSymbolTableRecord
100
AcDbLinetypeTableRecord
  2
BYBLOCK
 70
     0
  3

 72
    65
 73
     0
 40
0.0
  0
LTYPE
  5
15
330
5
100
AcDbSymbolTableRecord
100
AcDbLinetypeTableRecord
  2
BYLAYER
 70
     0
  3

 72
    65
 73
     0
 40
0.0
  0
LTYPE
  5
16
330
5
100
AcDbSymbolTableRecord
100
AcDbLinetypeTableRecord
  2
CONTINUOUS
 70
     0
  3
Solid line
 72
    65
 73
     0
 40
0.0
  0
ENDTAB
  0
TABLE
  2
LAYER
  5
2
100
AcDbSymbolTable
 70
2
  0
LAYER
  5
50
100
AcDbSymbolTableRecord
100
AcDbLayerTableRecord
  2
0
 70
0
  6
CONTINUOUS
  0
LAYER
  5
51
100
AcDbSymbolTableRecord
100
AcDbLayerTableRecord
  2
Layer_1
 70
0
  6
CONTINUOUS
  0
ENDTAB
  0
TABLE
  2
STYLE
  5
3
330
0
100
AcDbSymbolTable
 70
     1
  0
STYLE
  5
11
330
3
100
AcDbSymbolTableRecord
100
AcDbTextStyleTableRecord
  2
STANDARD
 70
     0
 40
0.0
 41
1.0
 50
0.0
 71
     0
 42
2.5
  3
txt
  4

  0
ENDTAB
  0
TABLE
  2
VIEW
  5
6
330
0
100
AcDbSymbolTable
 70
     0
  0
ENDTAB
  0
TABLE
  2
UCS
  5
7
330
0
100
AcDbSymbolTable
 70
     0
  0
ENDTAB
  0
TABLE
  2
APPID
  5
9
330
0
100
AcDbSymbolTable
 70
     2
  0
APPID
  5
12
330
9
100
AcDbSymbolTableRecord
100
AcDbRegAppTableRecord
  2
ACAD
 70
     0
  0
ENDTAB
  0
TABLE
  2
DIMSTYLE
  5
A
330
0
100
AcDbSymbolTable
 70
     1
  0
DIMSTYLE
105
27
330
A
100
AcDbSymbolTableRecord
100
AcDbDimStyleTableRecord
  2
ISO-25
 70
     0
  3

  4

  5

  6

  7

 40
1.0
 41
2.5
 42
0.625
 43
3.75
 44
1.25
 45
0.0
 46
0.0
 47
0.0
 48
0.0
140
2.5
141
2.5
142
0.0
143
0.03937007874016
144
1.0
145
0.0
146
1.0
147
0.625
 71
     0
 72
     0
 73
     0
 74
     0
 75
     0
 76
     0
 77
     1
 78
     8
170
     0
171
     3
172
     1
173
     0
174
     0
175
     0
176
     0
177
     0
178
     0
270
     2
271
     2
272
     2
273
     2
274
     3
340
11
275
     0
280
     0
281
     0
282
     0
283
     0
284
     8
285
     0
286
     0
287
     3
288
     0
  0
ENDTAB
  0
TABLE
  2
BLOCK_RECORD
  5
1
330
0
100
AcDbSymbolTable
 70
     1
  0
BLOCK_RECORD
  5
1F
330
1
100
AcDbSymbolTableRecord
100
AcDbBlockTableRecord
  2
*MODEL_SPACE
  0
BLOCK_RECORD
  5
1B
330
1
100
AcDbSymbolTableRecord
100
AcDbBlockTableRecord
  2
*PAPER_SPACE
  0
ENDTAB
  0
ENDSEC
  0
SECTION
  2
BLOCKS
  0
BLOCK
  5
20
330
1F
100
AcDbEntity
  8
0
100
AcDbBlockBegin
  2
*MODEL_SPACE
 70
     0
 10
0.0
 20
0.0
 30
0.0
  3
*MODEL_SPACE
  1

  0
ENDBLK
  5
21
330
1F
100
AcDbEntity
  8
0
100
AcDbBlockEnd
  0
BLOCK
  5
1C
330
1B
100
AcDbEntity
 67
     1
  8
0
100
AcDbBlockBegin
  2
*PAPER_SPACE
  1

  0
ENDBLK
  5
1D
330
1B
100
AcDbEntity
 67
     1
  8
0
100
AcDbBlockEnd
  0
ENDSEC
  0
SECTION
  2
ENTITIES
  0
LWPOLYLINE
  5
100
100
AcDbEntity
  8
Layer_1
 62
7
100
AcDbPolyline
 90
133
 70
0
 10
32.991309
 20
25.898424
 30
0.0
 10
31.245779
 20
25.550289
 30
0.0
 10
29.810978
 20
24.601503
 30
0.0
 10
28.828055
 20
23.189867
 30
0.0
 10
28.438165
 20
21.453187
 30
0.0
 10
28.432097
 20
21.453187
 30
0.0
 10
28.432097
 20
-0.158567
 30
0.0
 10
28.029525
 20
-2.152975
 30
0.0
 10
26.931538
 20
-3.781679
 30
0.0
 10
25.302947
 20
-4.879862
 30
0.0
 10
23.308569
 20
-5.282621
 30
0.0
 10
23.199560
 20
-5.276977
 30
0.0
 10
4.592225
 20
-5.276977
 30
0.0
 10
4.559190
 20
-5.274155
 30
0.0
 10
4.515145
 20
-5.276977
 30
0.0
 10
2.755020
 20
-5.647676
 30
0.0
 10
1.320308
 20
-6.627185
 30
0.0
 10
0.354225
 20
-8.071005
 30
0.0
 10
0.000000
 20
-9.834697
 30
0.0
 10
0.358433
 20
-11.609169
 30
0.0
 10
1.335543
 20
-13.058182
 30
0.0
 10
2.784682
 20
-14.035095
 30
0.0
 10
4.559202
 20
-14.393347
 30
0.0
 10
4.688033
 20
-14.388832
 30
0.0
 10
32.820085
 20
-14.388832
 30
0.0
 10
32.908725
 20
-14.393347
 30
0.0
 10
34.638965
 20
-14.052084
 30
0.0
 10
36.066705
 20
-13.119566
 30
0.0
 10
37.053605
 20
-11.728859
 30
0.0
 10
37.461323
 20
-10.013089
 30
0.0
 10
37.467927
 20
-10.013089
 30
0.0
 10
37.467927
 20
-9.834697
 30
0.0
 10
37.467927
 20
14.963716
 30
0.0
 10
37.857927
 20
16.924644
 30
0.0
 10
38.968680
 20
18.587040
 30
0.0
 10
40.631076
 20
19.697796
 30
0.0
 10
42.592004
 20
20.087796
 30
0.0
 10
42.592004
 20
20.211672
 30
0.0
 10
99.996871
 20
20.211672
 30
0.0
 10
101.020366
 20
21.235168
 30
0.0
 10
102.043862
 20
20.211672
 30
0.0
 10
107.935971
 20
20.211672
 30
0.0
 10
108.959464
 20
21.235168
 30
0.0
 10
109.982960
 20
20.211672
 30
0.0
 10
118.809014
 20
20.211672
 30
0.0
 10
119.832509
 20
21.235168
 30
0.0
 10
120.856005
 20
20.211672
 30
0.0
 10
126.748664
 20
20.211672
 30
0.0
 10
127.772157
 20
21.235168
 30
0.0
 10
128.795653
 20
20.211672
 30
0.0
 10
137.621707
 20
20.211672
 30
0.0
 10
138.645203
 20
21.235168
 30
0.0
 10
139.668696
 20
20.211672
 30
0.0
 10
145.560807
 20
20.211672
 30
0.0
 10
146.584303
 20
21.235168
 30
0.0
 10
147.607796
 20
20.211672
 30
0.0
 10
156.434401
 20
20.211672
 30
0.0
 10
157.457894
 20
21.235168
 30
0.0
 10
158.481389
 20
20.211672
 30
0.0
 10
164.373501
 20
20.211672
 30
0.0
 10
165.396994
 20
21.235168
 30
0.0
 10
166.420487
 20
20.211672
 30
0.0
 10
175.246544
 20
20.211672
 30
0.0
 10
176.270037
 20
21.235168
 30
0.0
 10
177.293532
 20
20.211672
 30
0.0
 10
183.186191
 20
20.211672
 30
0.0
 10
184.209687
 20
21.235168
 30
0.0
 10
185.233180
 20
20.211672
 30
0.0
 10
194.059237
 20
20.211672
 30
0.0
 10
195.082730
 20
21.235168
 30
0.0
 10
196.106226
 20
20.211672
 30
0.0
 10
201.998334
 20
20.211672
 30
0.0
 10
203.021830
 20
21.235168
 30
0.0
 10
204.045326
 20
20.211672
 30
0.0
 10
209.499189
 20
20.211672
 30
0.0
 10
209.499189
 20
21.032560
 30
0.0
 10
213.149414
 20
21.032560
 30
0.0
 10
213.149414
 20
20.211672
 30
0.0
 10
217.743848
 20
20.211672
 30
0.0
 10
217.743848
 20
21.032560
 30
0.0
 10
221.394627
 20
21.032560
 30
0.0
 10
221.394627
 20
20.211672
 30
0.0
 10
224.571918
 20
20.211672
 30
0.0
 10
224.965037
 20
21.271673
 30
0.0
 10
225.116971
 20
23.061377
 30
0.0
 10
224.968920
 20
24.831774
 30
0.0
 10
224.584029
 20
25.898424
 30
0.0
 10
221.394627
 20
25.898424
 30
0.0
 10
221.394627
 20
24.963018
 30
0.0
 10
217.743848
 20
24.963018
 30
0.0
 10
217.743848
 20
25.898424
 30
0.0
 10
213.149414
 20
25.898424
 30
0.0
 10
213.149414
 20
24.963018
 30
0.0
 10
209.499189
 20
24.963018
 30
0.0
 10
209.499189
 20
25.898424
 30
0.0
 10
204.159841
 20
25.898424
 30
0.0
 10
203.021830
 20
24.760411
 30
0.0
 10
201.883820
 20
25.898424
 30
0.0
 10
196.220740
 20
25.898424
 30
0.0
 10
195.082730
 20
24.760411
 30
0.0
 10
193.944720
 20
25.898424
 30
0.0
 10
185.347697
 20
25.898424
 30
0.0
 10
184.209687
 20
24.760411
 30
0.0
 10
183.071677
 20
25.898424
 30
0.0
 10
177.408050
 20
25.898424
 30
0.0
 10
176.270037
 20
24.760411
 30
0.0
 10
175.132026
 20
25.898424
 30
0.0
 10
166.535007
 20
25.898424
 30
0.0
 10
165.396994
 20
24.760411
 30
0.0
 10
164.258983
 20
25.898424
 30
0.0
 10
158.595907
 20
25.898424
 30
0.0
 10
157.457894
 20
24.760411
 30
0.0
 10
156.319883
 20
25.898424
 30
0.0
 10
147.722313
 20
25.898424
 30
0.0
 10
146.584303
 20
24.760411
 30
0.0
 10
145.446290
 20
25.898424
 30
0.0
 10
139.783213
 20
25.898424
 30
0.0
 10
138.645203
 20
24.760411
 30
0.0
 10
137.507190
 20
25.898424
 30
0.0
 10
128.910170
 20
25.898424
 30
0.0
 10
127.772157
 20
24.760411
 30
0.0
 10
126.634147
 20
25.898424
 30
0.0
 10
120.970520
 20
25.898424
 30
0.0
 10
119.832509
 20
24.760411
 30
0.0
 10
118.694499
 20
25.898424
 30
0.0
 10
110.097474
 20
25.898424
 30
0.0
 10
108.959464
 20
24.760411
 30
0.0
 10
107.821453
 20
25.898424
 30
0.0
 10
102.158377
 20
25.898424
 30
0.0
 10
101.020366
 20
24.760411
 30
0.0
 10
99.882356
 20
25.898424
 30
0.0
 10
32.991309
 20
25.898424
 30
0.0
 10
32.991309
 20
25.898424
 30
0.0
  0
ENDSEC
  0
SECTION
  2
OBJECTS
  0
DICTIONARY
  5
C
330
0
100
AcDbDictionary
  3
ACAD_GROUP
350
D
  3
ACAD_MLINESTYLE
350
17
  0
DICTIONARY
  5
D
330
C
100
AcDbDictionary
  0
DICTIONARY
  5
1A
330
C
100
AcDbDictionary
  0
DICTIONARY
  5
17
330
C
100
AcDbDictionary
  3
STANDARD
350
18
  0
DICTIONARY
  5
19
330
C
100
AcDbDictionary
  0
ENDSEC
  0
EOF
